# xmcd
#
# Track frame offsets:
#	150
#	21670
#	43130
#	65897
#
# Disc length: 1165 seconds
#
# Revision: 1
# Processed by: cddbd v1.5.1PL0 Copyright (c) Steve Scherf et al.
# Submitted via: CDex 1.50Beta5
#
DISCID=3c048b04
DTITLE=五木ひろし - 酒 ひとり
DYEAR=1998
DGENRE=World
TTITLE0=五木ひろし/酒 ひとり
TTITLE1=酒 ひとり
TTITLE2=五木ひろし/浮き雲
TTITLE3=酒 ひとり
EXTD=
EXTT0=
EXTT1=
EXTT2=
EXTT3=
PLAYORDER=
